<mxfile>
    <diagram id="2kq9EA6SN-gvE-CDOyqK" name="Page-1">
        <mxGraphModel dx="920" dy="1657" grid="1" gridSize="10" guides="1" tooltips="1" connect="1" arrows="1" fold="1" page="1" pageScale="1" pageWidth="827" pageHeight="1169" math="0" shadow="0">
            <root>
                <mxCell id="0"/>
                <mxCell id="1" parent="0"/>
                <mxCell id="2" value="" style="edgeStyle=orthogonalEdgeStyle;rounded=0;orthogonalLoop=1;jettySize=auto;html=1;fontSize=19;fillColor=#660033;" edge="1" parent="1" source="7" target="9">
                    <mxGeometry relative="1" as="geometry">
                        <Array as="points">
                            <mxPoint x="414" y="234"/>
                            <mxPoint x="320" y="234"/>
                        </Array>
                    </mxGeometry>
                </mxCell>
                <mxCell id="3" style="edgeStyle=orthogonalEdgeStyle;rounded=0;orthogonalLoop=1;jettySize=auto;html=1;fontSize=19;fillColor=#660033;" edge="1" parent="1" source="7" target="11">
                    <mxGeometry relative="1" as="geometry">
                        <Array as="points">
                            <mxPoint x="440" y="234"/>
                            <mxPoint x="534" y="234"/>
                        </Array>
                    </mxGeometry>
                </mxCell>
                <mxCell id="4" style="edgeStyle=orthogonalEdgeStyle;rounded=0;orthogonalLoop=1;jettySize=auto;html=1;entryX=0.5;entryY=0;entryDx=0;entryDy=0;fontSize=19;fillColor=#660033;" edge="1" parent="1" source="7" target="13">
                    <mxGeometry relative="1" as="geometry">
                        <Array as="points">
                            <mxPoint x="360" y="100"/>
                            <mxPoint x="60" y="100"/>
                        </Array>
                    </mxGeometry>
                </mxCell>
                <mxCell id="5" style="edgeStyle=orthogonalEdgeStyle;rounded=0;orthogonalLoop=1;jettySize=auto;html=1;entryX=0.5;entryY=0;entryDx=0;entryDy=0;fontSize=19;fillColor=#660033;" edge="1" parent="1" source="7" target="16">
                    <mxGeometry relative="1" as="geometry">
                        <Array as="points">
                            <mxPoint x="470" y="60"/>
                            <mxPoint x="660" y="60"/>
                        </Array>
                    </mxGeometry>
                </mxCell>
                <mxCell id="6" style="edgeStyle=orthogonalEdgeStyle;rounded=0;orthogonalLoop=1;jettySize=auto;html=1;entryX=0.5;entryY=0;entryDx=0;entryDy=0;fontSize=19;fillColor=#660033;" edge="1" parent="1" source="7" target="20">
                    <mxGeometry relative="1" as="geometry">
                        <Array as="points">
                            <mxPoint x="390" y="160"/>
                            <mxPoint x="170" y="160"/>
                        </Array>
                    </mxGeometry>
                </mxCell>
                <mxCell id="7" value="App" style="rounded=1;whiteSpace=wrap;html=1;fontSize=27;fillColor=#3333FF;" vertex="1" parent="1">
                    <mxGeometry x="360" y="-20" width="120" height="60" as="geometry"/>
                </mxCell>
                <mxCell id="8" style="edgeStyle=orthogonalEdgeStyle;rounded=0;orthogonalLoop=1;jettySize=auto;html=1;fontSize=19;fillColor=#660033;" edge="1" parent="1" source="9">
                    <mxGeometry relative="1" as="geometry">
                        <mxPoint x="320" y="384" as="targetPoint"/>
                    </mxGeometry>
                </mxCell>
                <mxCell id="9" value="HomePage" style="rounded=1;whiteSpace=wrap;html=1;fontSize=19;fillColor=#660033;" vertex="1" parent="1">
                    <mxGeometry x="260" y="264" width="120" height="60" as="geometry"/>
                </mxCell>
                <mxCell id="10" style="edgeStyle=orthogonalEdgeStyle;rounded=0;orthogonalLoop=1;jettySize=auto;html=1;entryX=0.5;entryY=0;entryDx=0;entryDy=0;fontSize=16;fillColor=#660033;" edge="1" parent="1" source="11" target="25">
                    <mxGeometry relative="1" as="geometry"/>
                </mxCell>
                <mxCell id="11" value="ChatRoom" style="rounded=1;whiteSpace=wrap;html=1;fontSize=19;fillColor=#660033;" vertex="1" parent="1">
                    <mxGeometry x="460" y="264" width="120" height="60" as="geometry"/>
                </mxCell>
                <mxCell id="12" style="edgeStyle=orthogonalEdgeStyle;rounded=0;orthogonalLoop=1;jettySize=auto;html=1;fontSize=19;entryX=0.5;entryY=0;entryDx=0;entryDy=0;fillColor=#660033;" edge="1" parent="1" source="13" target="21">
                    <mxGeometry relative="1" as="geometry">
                        <mxPoint x="80" y="270" as="targetPoint"/>
                        <Array as="points">
                            <mxPoint x="55" y="260"/>
                            <mxPoint x="55" y="260"/>
                        </Array>
                    </mxGeometry>
                </mxCell>
                <mxCell id="13" value="LoginPage" style="rounded=1;whiteSpace=wrap;html=1;fontSize=19;align=center;verticalAlign=top;fillColor=#660033;" vertex="1" parent="1">
                    <mxGeometry x="10" y="190" width="100" height="50" as="geometry"/>
                </mxCell>
                <mxCell id="14" style="edgeStyle=orthogonalEdgeStyle;rounded=0;orthogonalLoop=1;jettySize=auto;html=1;fontSize=19;fillColor=#660033;" edge="1" parent="1" source="16" target="22">
                    <mxGeometry relative="1" as="geometry">
                        <mxPoint x="690" y="120" as="targetPoint"/>
                        <Array as="points">
                            <mxPoint x="660" y="210"/>
                            <mxPoint x="660" y="210"/>
                        </Array>
                    </mxGeometry>
                </mxCell>
                <mxCell id="15" style="edgeStyle=orthogonalEdgeStyle;rounded=0;orthogonalLoop=1;jettySize=auto;html=1;fontSize=16;fillColor=#660033;" edge="1" parent="1" source="16" target="23">
                    <mxGeometry relative="1" as="geometry">
                        <mxPoint x="720" y="280" as="targetPoint"/>
                        <Array as="points">
                            <mxPoint x="690" y="186"/>
                            <mxPoint x="725" y="186"/>
                        </Array>
                    </mxGeometry>
                </mxCell>
                <mxCell id="16" value="Profile Page" style="rounded=1;whiteSpace=wrap;html=1;fontSize=19;align=center;verticalAlign=top;fillColor=#660033;" vertex="1" parent="1">
                    <mxGeometry x="620" y="80" width="80" height="84" as="geometry"/>
                </mxCell>
                <mxCell id="17" style="edgeStyle=orthogonalEdgeStyle;rounded=0;orthogonalLoop=1;jettySize=auto;html=1;fontSize=19;fillColor=#660033;" edge="1" parent="1" source="18" target="19">
                    <mxGeometry relative="1" as="geometry">
                        <Array as="points">
                            <mxPoint x="240" y="500"/>
                            <mxPoint x="240" y="500"/>
                        </Array>
                    </mxGeometry>
                </mxCell>
                <mxCell id="18" value="StreamWindow" style="rounded=1;whiteSpace=wrap;html=1;fontSize=19;align=center;fillColor=#660033;" vertex="1" parent="1">
                    <mxGeometry x="260" y="320" width="120" height="70" as="geometry"/>
                </mxCell>
                <mxCell id="19" value="Posts" style="rounded=0;whiteSpace=wrap;html=1;fontSize=19;align=center;fillColor=#660033;" vertex="1" parent="1">
                    <mxGeometry x="150" y="514" width="120" height="60" as="geometry"/>
                </mxCell>
                <mxCell id="20" value="NavBar" style="rounded=1;whiteSpace=wrap;html=1;fontSize=19;align=center;fillColor=#660033;" vertex="1" parent="1">
                    <mxGeometry x="110" y="264" width="120" height="60" as="geometry"/>
                </mxCell>
                <mxCell id="21" value="Login Button" style="rounded=1;whiteSpace=wrap;html=1;fontSize=19;align=center;fillColor=#660033;" vertex="1" parent="1">
                    <mxGeometry x="10" y="298" width="90" height="46" as="geometry"/>
                </mxCell>
                <mxCell id="22" value="Logout Button" style="ellipse;whiteSpace=wrap;html=1;fontSize=16;fillColor=#660033;" vertex="1" parent="1">
                    <mxGeometry x="610" y="228" width="100" height="70" as="geometry"/>
                </mxCell>
                <mxCell id="23" value="User Info:&lt;br&gt;Name,&lt;br&gt;About,&lt;br&gt;Hobbies .....&lt;br&gt;" style="shape=parallelogram;perimeter=parallelogramPerimeter;whiteSpace=wrap;html=1;fixedSize=1;fontSize=16;align=center;fillColor=#660033;" vertex="1" parent="1">
                    <mxGeometry x="630" y="344" width="190" height="106" as="geometry"/>
                </mxCell>
                <mxCell id="24" value="Photo" style="ellipse;whiteSpace=wrap;html=1;fontSize=16;align=center;fillColor=#660033;" vertex="1" parent="1">
                    <mxGeometry x="750" y="310" width="77" height="50" as="geometry"/>
                </mxCell>
                <mxCell id="25" value="Chat Engine:&lt;br&gt;Chat Feed,&lt;br&gt;Message Form,&lt;br&gt;My Message,&lt;br&gt;Their Messages&amp;nbsp;" style="rounded=1;whiteSpace=wrap;html=1;fontSize=16;align=center;fillColor=#660033;" vertex="1" parent="1">
                    <mxGeometry x="370" y="415" width="140" height="170" as="geometry"/>
                </mxCell>
            </root>
        </mxGraphModel>
    </diagram>
</mxfile>